<?xml version="1.0" encoding="UTF-8" standalone="no"?>
<!DOCTYPE svg PUBLIC "-//W3C//DTD SVG 20010904//EN"
              "http://www.w3.org/TR/2001/REC-SVG-20010904/DTD/svg10.dtd">

<svg xmlns="http://www.w3.org/2000/svg"
     width="6in" height="3.33333in"
     viewBox="0 0 1800 1000">
  <path id="Unnamed"
        fill="none" stroke="black" stroke-width="1"
        d="M 1100.00,1000.00
           C 1100.00,1000.00 1100.00,850.00 1100.00,850.00
             1100.00,850.00 1600.00,850.00 1600.00,850.00
             1600.00,850.00 1600.00,150.00 1600.00,150.00
             1600.00,150.00 1100.00,150.00 1100.00,150.00
             1100.00,150.00 1100.00,0.00 1100.00,0.00M 1100.00,350.00
           C 1100.00,350.00 1100.00,650.00 1100.00,650.00
             1100.00,650.00 1400.00,650.00 1400.00,650.00
             1400.00,650.00 1400.00,350.00 1400.00,350.00
             1400.00,350.00 1100.00,350.00 1100.00,350.00 Z
           M 400.00,350.00
           C 400.00,350.00 400.00,650.00 400.00,650.00
             400.00,650.00 700.00,650.00 700.00,650.00
             700.00,650.00 700.00,350.00 700.00,350.00
             700.00,350.00 400.00,350.00 400.00,350.00 Z
           M 700.00,1000.00
           C 700.00,1000.00 700.00,850.00 700.00,850.00
             700.00,850.00 200.00,850.00 200.00,850.00
             200.00,850.00 200.00,150.00 200.00,150.00
             200.00,150.00 700.00,150.00 700.00,150.00
             700.00,150.00 700.00,0.00 700.00,0.00" />
</svg>
